<?xml version="1.0" standalone="no"?>
<!DOCTYPE svg PUBLIC "-//W3C//DTD SVG 20010904//EN"
 "http://www.w3.org/TR/2001/REC-SVG-20010904/DTD/svg10.dtd">
<svg version="1.0" xmlns="http://www.w3.org/2000/svg"
 width="261.000000pt" height="261.000000pt" viewBox="0 0 261.000000 261.000000"
 preserveAspectRatio="xMidYMid meet">
<metadata>
Created by potrace 1.11, written by Peter Selinger 2001-2013
</metadata>
<g transform="translate(0.000000,261.000000) scale(0.100000,-0.100000)"
fill="#000000" stroke="none">
<path d="M148 2602 l-148 -3 0 -1294 0 -1295 138 -1 c113 -1 1007 0 2230 1
l232 0 0 1295 0 1295 -307 1 c-958 3 -2017 4 -2145 1z m1468 -827 c420 -1034
509 -1248 536 -1292 32 -50 106 -101 160 -110 l38 -6 0 -53 0 -54 -400 0 -400
0 0 49 0 48 55 7 c30 3 80 16 110 27 44 16 60 28 72 54 15 31 15 39 1 97 -9
35 -49 141 -89 236 l-73 172 -399 -2 -399 -3 -40 -95 c-60 -146 -128 -337
-128 -363 0 -47 68 -87 183 -107 l67 -12 0 -54 0 -54 -330 0 -330 0 0 50 c0
46 2 50 27 56 117 24 156 63 237 235 30 63 197 470 371 906 l317 792 51 10
c82 16 101 19 121 17 16 -1 60 -102 242 -551z"/>
<path d="M1048 1523 l-176 -448 356 -3 c195 -1 357 -1 358 1 4 3 -337 852
-353 882 -7 12 -54 -97 -185 -432z"/>
</g>
</svg>
